<svg width="480" height="480" xmlns="http://www.w3.org/2000/svg" xmlns:svg="http://www.w3.org/2000/svg">
 <g id="bell">
  <path stroke="#ffffff" fill="#e0e0e0" id="svg_1" d="m381.834,361.391c5.045,0 9.174,-4.125 9.174,-9.168l0,-14.657c0,-5.048 -3.158,-11.848 -6.986,-15.109c0,0 -59.893,-50.876 -64.393,-131.984c-5.389,-97.003 -54.984,-93.017 -80.742,-93.017s-75.348,-3.986 -80.742,93.017c-4.508,81.108 -64.389,131.984 -64.389,131.984c-3.836,3.262 -6.986,10.062 -6.986,15.109l0,14.657c0,5.043 4.125,9.168 9.174,9.168l285.89,0z"/>
  <path stroke="#ffffff" fill="#e0e0e0" id="svg_2" d="m236.022,79.188l2.865,0l2.869,0l3.365,-0.013c7.93,0 16.131,0.53 24.188,2.235l0,-7.158c0,-10.031 -8.211,-18.25 -18.256,-18.25l-24.328,0c-10.049,0 -18.26,8.219 -18.26,18.25l0,7.158c8.055,-1.705 16.258,-2.235 24.188,-2.235l3.369,0.013z"/>
  <path stroke="#ffffff" fill="#e0e0e0" id="svg_3" d="m202.381,379.641c0,16.736 13.686,36.363 30.422,36.363l12.172,0c16.736,0 30.422,-19.627 30.422,-36.363l0,0l-73.016,0l0,0z"/>
 </g>
</svg>
