<?xml version="1.0" encoding="UTF-8" standalone="no"?>
<svg
   xmlns:osb="http://www.openswatchbook.org/uri/2009/osb"
   xmlns:dc="http://purl.org/dc/elements/1.1/"
   xmlns:cc="http://creativecommons.org/ns#"
   xmlns:rdf="http://www.w3.org/1999/02/22-rdf-syntax-ns#"
   xmlns:svg="http://www.w3.org/2000/svg"
   xmlns="http://www.w3.org/2000/svg"
   version="1.1"
   id="svg2"
   viewBox="2 0 93 338">
  <metadata
     id="metadata122">
    <rdf:RDF>
      <cc:Work
         rdf:about="">
        <dc:format>image/svg+xml</dc:format>
        <dc:type
           rdf:resource="http://purl.org/dc/dcmitype/StillImage" />
        <dc:title></dc:title>
      </cc:Work>
    </rdf:RDF>
  </metadata>
  <defs
     id="defs120">
    <marker
       style="overflow:visible"
       id="DotL"
       refX="0.0"
       refY="0.0"
       orient="auto">
      <path
         transform="scale(0.8) translate(7.4, 1)"
         style="fill-rule:evenodd;stroke:#000000;stroke-width:1.0pt"
         d="M -2.5,-1.0 C -2.5,1.7600000 -4.7400000,4.0 -7.5,4.0 C -10.260000,4.0 -12.5,1.7600000 -12.5,-1.0 C -12.5,-3.7600000 -10.260000,-6.0 -7.5,-6.0 C -4.7400000,-6.0 -2.5,-3.7600000 -2.5,-1.0 z "
         id="path5683" />
    </marker>
    <linearGradient
       osb:paint="solid"
       id="linearGradient4178">
      <stop
         id="stop4180"
         offset="0"
         style="stop-color:#6b6b6b;stop-opacity:1;" />
    </linearGradient>
  </defs>
  <rect
     style="opacity:1;fill:#262626;fill-opacity:1;fill-rule:evenodd;stroke:#999999;stroke-width:2.1;stroke-linecap:round;stroke-linejoin:round;stroke-miterlimit:4;stroke-dasharray:none;stroke-dashoffset:0;stroke-opacity:1"
     id="rect5917"
     width="37.462101"
     height="27.100245"
     x="54.207821"
     y="244.34491"
     ry="0"
     rx="0" />
  <rect
     rx="0"
     ry="0"
     y="244.34476"
     x="1.7011002"
     height="27.100245"
     width="37.462101"
     id="rect5919"
     style="opacity:1;fill:#262626;fill-opacity:1;fill-rule:evenodd;stroke:#999999;stroke-width:2.1;stroke-linecap:round;stroke-linejoin:round;stroke-miterlimit:4;stroke-dasharray:none;stroke-dashoffset:0;stroke-opacity:1" />
  <rect
     rx="0"
     ry="0"
     y="197.41765"
     x="54.207821"
     height="27.100245"
     width="37.462101"
     id="rect5913"
     style="opacity:1;fill:#262626;fill-opacity:1;fill-rule:evenodd;stroke:#999999;stroke-width:2.1;stroke-linecap:round;stroke-linejoin:round;stroke-miterlimit:4;stroke-dasharray:none;stroke-dashoffset:0;stroke-opacity:1" />
  <rect
     style="opacity:1;fill:#262626;fill-opacity:1;fill-rule:evenodd;stroke:#999999;stroke-width:2.1;stroke-linecap:round;stroke-linejoin:round;stroke-miterlimit:4;stroke-dasharray:none;stroke-dashoffset:0;stroke-opacity:1"
     id="rect5915"
     width="37.462101"
     height="27.100245"
     x="1.7011002"
     y="197.4175"
     ry="0"
     rx="0" />
  <rect
     style="opacity:1;fill:#262626;fill-opacity:1;fill-rule:evenodd;stroke:#999999;stroke-width:2.1;stroke-linecap:round;stroke-linejoin:round;stroke-miterlimit:4;stroke-dasharray:none;stroke-dashoffset:0;stroke-opacity:1"
     id="rect5909"
     width="37.462101"
     height="27.100245"
     x="54.506721"
     y="149.79295"
     ry="0"
     rx="0" />
  <rect
     rx="0"
     ry="0"
     y="149.7928"
     x="1.7011002"
     height="27.100245"
     width="37.462101"
     id="rect5911"
     style="opacity:1;fill:#262626;fill-opacity:1;fill-rule:evenodd;stroke:#999999;stroke-width:2.1;stroke-linecap:round;stroke-linejoin:round;stroke-miterlimit:4;stroke-dasharray:none;stroke-dashoffset:0;stroke-opacity:1" />
  <rect
     rx="0"
     ry="0"
     y="102.26788"
     x="54.506721"
     height="27.100245"
     width="37.462101"
     id="rect5905"
     style="opacity:1;fill:#262626;fill-opacity:1;fill-rule:evenodd;stroke:#999999;stroke-width:2.1;stroke-linecap:round;stroke-linejoin:round;stroke-miterlimit:4;stroke-dasharray:none;stroke-dashoffset:0;stroke-opacity:1" />
  <rect
     style="opacity:1;fill:#262626;fill-opacity:1;fill-rule:evenodd;stroke:#999999;stroke-width:2.1;stroke-linecap:round;stroke-linejoin:round;stroke-miterlimit:4;stroke-dasharray:none;stroke-dashoffset:0;stroke-opacity:1"
     id="rect5907"
     width="37.462101"
     height="27.100245"
     x="1.7011002"
     y="102.26773"
     ry="0"
     rx="0" />
  <rect
     style="opacity:1;fill:#262626;fill-opacity:1;fill-rule:evenodd;stroke:#999999;stroke-width:2.1;stroke-linecap:round;stroke-linejoin:round;stroke-miterlimit:4;stroke-dasharray:none;stroke-dashoffset:0;stroke-opacity:1"
     id="rect5901"
     width="37.462101"
     height="27.100245"
     x="54.506721"
     y="53.447582"
     ry="0"
     rx="0" />
  <rect
     rx="0"
     ry="0"
     y="53.447437"
     x="1.7011002"
     height="27.100245"
     width="37.462101"
     id="rect5903"
     style="opacity:1;fill:#262626;fill-opacity:1;fill-rule:evenodd;stroke:#999999;stroke-width:2.1;stroke-linecap:round;stroke-linejoin:round;stroke-miterlimit:4;stroke-dasharray:none;stroke-dashoffset:0;stroke-opacity:1" />
  <rect
     rx="0"
     ry="0"
     y="7.2177553"
     x="54.506721"
     height="27.100245"
     width="37.462101"
     id="rect5891"
     style="opacity:1;fill:#262626;fill-opacity:1;fill-rule:evenodd;stroke:#999999;stroke-width:2.1;stroke-linecap:round;stroke-linejoin:round;stroke-miterlimit:4;stroke-dasharray:none;stroke-dashoffset:0;stroke-opacity:1" />
  <rect
     style="opacity:1;fill:#262626;fill-opacity:1;fill-rule:evenodd;stroke:#999999;stroke-width:2.1;stroke-linecap:round;stroke-linejoin:round;stroke-miterlimit:4;stroke-dasharray:none;stroke-dashoffset:0;stroke-opacity:1"
     id="rect5880"
     width="37.462101"
     height="27.100245"
     x="1.7011002"
     y="7.2176099"
     ry="0"
     rx="0" />
  <path
     style="fill:#ee7aaa"
     id="path6"
     d="m 8.9814387,0.02947338 35.9999993,0 0,25.53132662 -35.9999993,0 0,-25.53132662 z" />
  <path
     style="fill:#f3a0c5"
     id="path8"
     d="m 8.9814387,25.5608 -7,8.510442 0,-25.5313266 7,-8.51044202 0,25.53132662 z" />
  <path
     style="fill:#db5b90"
     id="path10"
     d="m 44.981438,25.5608 -35.9999993,0 -7,8.510442 35.9999993,0 7,-8.510442 z" />
  <path
     style="fill:#dbd6c9;fill-opacity:1"
     id="path12"
     d="m 8.9814387,46.241174 35.9999993,0 0,25.531329 -35.9999993,0 0,-25.531329 z" />
  <path
     style="fill:#e8e4dc;fill-opacity:1"
     id="path14"
     d="m 8.9814387,71.772503 -7,8.51044 0,-25.53133 7,-8.510439 0,25.531329 z" />
  <path
     style="fill:#c0b9a7;fill-opacity:1"
     id="path16"
     d="m 44.981438,71.772503 -35.9999993,0 -7,8.51044 35.9999993,0 7,-8.51044 z" />
  <path
     style="fill:#5ca8dd"
     id="path24"
     d="m 8.9814387,95.006013 35.9999993,0 0,25.531317 -35.9999993,0 0,-25.531317 z" />
  <path
     style="fill:#a6d7f5"
     id="path26"
     d="m 8.9814387,120.53733 -7,8.51044 0,-25.53132 7,-8.510437 0,25.531317 z" />
  <path
     style="fill:#397ea9"
     id="path28"
     d="m 44.981438,120.53733 -35.9999993,0 -7,8.51044 35.9999993,0 7,-8.51044 z" />
  <path
     style="fill:#3665a6"
     id="path34"
     d="m 8.9814387,142.57938 35.9999993,0 0,25.53132 -35.9999993,0 0,-25.53132 z" />
  <path
     style="fill:#397ec1"
     id="path36"
     d="m 8.9814387,168.1107 -7,8.51045 0,-25.53133 7,-8.51044 0,25.53132 z" />
  <path
     style="fill:#264973"
     id="path38"
     d="m 44.981438,168.1107 -35.9999993,0 -7,8.51045 35.9999993,0 7,-8.51045 z" />
  <path
     style="fill:#de4937"
     id="path44"
     d="m 8.9814387,190.23785 35.9999993,0 0,25.53133 -35.9999993,0 0,-25.53133 z" />
  <path
     style="fill:#e26359"
     id="path46"
     d="m 8.9814387,215.76918 -7,8.51044 0,-25.53132 7,-8.51045 0,25.53133 z" />
  <path
     style="fill:#c84433"
     id="path48"
     d="m 44.981438,215.76918 -35.9999993,0 -7,8.51044 35.9999993,0 7,-8.51044 z" />
  <path
     style="fill:#d3ccbd"
     id="path54"
     d="m 8.9814387,237.2155 35.9999993,0 0,25.53132 -35.9999993,0 0,-25.53132 z" />
  <path
     style="fill:#e0dbcf"
     id="path56"
     d="m 8.9814387,262.66172 -7,8.51044 0,-25.53133 7,-8.42533 0,25.44622 z" />
  <path
     style="fill:#b8b09c"
     id="path58"
     d="m 44.981438,262.66172 -35.9999993,0 -7,8.51044 35.9999993,0 7,-8.51044 z" />
  <path
     style="fill:#f3a0c5"
     id="path60"
     d="m 54.781437,34.027655 2,-1.702088 0,-25.5313264 -2,1.787193 0,25.4462214 z" />
  <path
     style="fill:#db5b90"
     id="path62"
     d="m 90.781437,34.027655 -36,0 2,-1.702088 36,0 -2,1.702088 z" />
  <path
     style="fill:#ee7aaa"
     id="path64"
     d="m 56.781437,6.7942406 36,0 0,25.5313264 -36,0 0,-25.5313264 z" />
  <path
     style="fill:#e8e4dc;fill-opacity:1"
     id="path68"
     d="m 54.780338,80.282943 2,-1.70209 0,-25.53132 -2,1.70208 0,25.53133 z" />
  <path
     style="fill:#c0b9a8;fill-opacity:1"
     id="path70"
     d="m 90.780338,80.282943 -36,0 2,-1.70209 36,0 -2,1.70209 z" />
  <path
     style="fill:#dbd6c9;fill-opacity:1"
     id="path72"
     d="m 56.780338,53.049533 36,0 0,25.53132 -36,0 0,-25.53132 z" />
  <path
     style="fill:#e0dbcf"
     id="path76"
     d="m 54.481438,271.42747 2,-1.70208 0,-25.53133 -2,1.8723 0,25.36111 z" />
  <path
     style="fill:#b8b09c"
     id="path78"
     d="m 90.481438,271.42747 -36,0 2,-1.70208 36,0 -2,1.70208 z" />
  <path
     style="fill:#d3ccbd"
     id="path80"
     d="m 56.481438,244.19406 36,0 0,25.53133 -36,0 0,-25.53133 z" />
  <path
     style="fill:#a6d7f5"
     id="path88"
     d="m 54.780338,129.04777 2,-1.70208 0,-25.53133 -2,1.8723 0,25.36111 z" />
  <path
     style="fill:#397ea9"
     id="path90"
     d="m 90.780338,129.04777 -36,0 2,-1.70208 36,0 -2,1.70208 z" />
  <path
     style="fill:#5ca8dd"
     id="path92"
     d="m 56.780338,101.81436 36,0 0,25.53133 -36,0 0,-25.53133 z" />
  <path
     style="fill:#397ec1"
     id="path98"
     d="m 54.780338,176.59209 2,-1.70209 0,-25.53133 -2,1.78719 0,25.44623 z" />
  <path
     style="fill:#264973"
     id="path100"
     d="m 90.780338,176.59209 -36,0 2,-1.70209 36,0 -2,1.70209 z" />
  <path
     style="fill:#3665a6"
     id="path102"
     d="m 56.780338,149.35867 36,0 0,25.53133 -36,0 0,-25.53133 z" />
  <path
     style="fill:#e26359"
     id="path108"
     d="m 54.481438,224.27962 2,-1.70208 0,-25.53133 -2,1.78719 0,25.44622 z" />
  <path
     style="fill:#c84433"
     id="path110"
     d="m 90.481438,224.27962 -36,0 2,-1.70208 36,0 -2,1.70208 z" />
  <path
     style="fill:#de4937"
     id="path112"
     d="m 56.481438,197.04621 36,0 0,25.53133 -36,0 0,-25.53133 z" />
</svg>
