<?xml version="1.0" encoding="UTF-8" standalone="no"?>
<svg
   xmlns:dc="http://purl.org/dc/elements/1.1/"
   xmlns:cc="http://creativecommons.org/ns#"
   xmlns:rdf="http://www.w3.org/1999/02/22-rdf-syntax-ns#"
   xmlns:svg="http://www.w3.org/2000/svg"
   xmlns="http://www.w3.org/2000/svg"
   xmlns:sodipodi="http://sodipodi.sourceforge.net/DTD/sodipodi-0.dtd"
   xmlns:inkscape="http://www.inkscape.org/namespaces/inkscape"
   viewBox="2 0 93 338"
   id="svg2"
   version="1.1"
   inkscape:version="0.91 r13725"
   sodipodi:docname="buttons_small_flattened.svg">
  <metadata
     id="metadata122">
    <rdf:RDF>
      <cc:Work
         rdf:about="">
        <dc:format>image/svg+xml</dc:format>
        <dc:type
           rdf:resource="http://purl.org/dc/dcmitype/StillImage" />
        <dc:title></dc:title>
      </cc:Work>
    </rdf:RDF>
  </metadata>
  <defs
     id="defs120" />
  <sodipodi:namedview
     pagecolor="#ffffff"
     bordercolor="#666666"
     borderopacity="1"
     objecttolerance="10"
     gridtolerance="10"
     guidetolerance="10"
     inkscape:pageopacity="0"
     inkscape:pageshadow="2"
     inkscape:window-width="1920"
     inkscape:window-height="1017"
     id="namedview118"
     showgrid="false"
     inkscape:zoom="5.018405"
     inkscape:cx="34.782529"
     inkscape:cy="234.75842"
     inkscape:window-x="-8"
     inkscape:window-y="32"
     inkscape:window-maximized="1"
     inkscape:current-layer="svg2" />
  <path
     d="m 92.881438,11.263257 -2.3,23.063298 -35.8,0 2,2.553133 38,0 0,-20.084644 -1.9,-5.531787 z m -54.9,34.977917 0,34.041769 -35.9999993,0 3.8,5.95731 43.1999993,0 0,-27.23342 -11,-12.765659 z m 0,-46.21170062 0,34.04176862 -35.9999993,0 3.8,5.95731 43.1999993,0 0,-27.148311 -11,-12.85076762 z"
     id="path4"
     inkscape:connector-curvature="0"
     style="opacity:0.12999998" />
  <path
     d="m 8.9814387,0.02947338 35.9999993,0 0,25.53132662 -35.9999993,0 0,-25.53132662 z"
     id="path6"
     inkscape:connector-curvature="0"
     style="fill:#ee7aaa" />
  <path
     d="m 8.9814387,25.5608 -7,8.510442 0,-25.5313266 7,-8.51044202 0,25.53132662 z"
     id="path8"
     inkscape:connector-curvature="0"
     style="fill:#f3a0c5" />
  <path
     d="m 44.981438,25.5608 -35.9999993,0 -7,8.510442 35.9999993,0 7,-8.510442 z"
     id="path10"
     inkscape:connector-curvature="0"
     style="fill:#db5b90" />
  <path
     d="m 8.9814387,46.241174 35.9999993,0 0,25.531329 -35.9999993,0 0,-25.531329 z"
     id="path12"
     style="fill:#dbd6c9;fill-opacity:1"
     inkscape:connector-curvature="0" />
  <path
     d="m 8.9814387,71.772503 -7,8.51044 0,-25.53133 7,-8.510439 0,25.531329 z"
     id="path14"
     inkscape:connector-curvature="0"
     style="fill:#e8e4dc;fill-opacity:1" />
  <path
     d="m 44.981438,71.772503 -35.9999993,0 -7,8.51044 35.9999993,0 7,-8.51044 z"
     id="path16"
     inkscape:connector-curvature="0"
     style="fill:#c0b9a7;fill-opacity:1" />
  <path
     d="m 37.981438,95.006013 0,34.041757 -35.9999993,0 3.8,5.95731 43.1999993,0 0,-27.14831 -11,-12.850757 z"
     id="path22"
     inkscape:connector-curvature="0"
     style="opacity:0.12999998" />
  <path
     d="m 8.9814387,95.006013 35.9999993,0 0,25.531317 -35.9999993,0 0,-25.531317 z"
     id="path24"
     inkscape:connector-curvature="0"
     style="fill:#5ca8dd" />
  <path
     d="m 8.9814387,120.53733 -7,8.51044 0,-25.53132 7,-8.510437 0,25.531317 z"
     id="path26"
     inkscape:connector-curvature="0"
     style="fill:#a6d7f5" />
  <path
     d="m 44.981438,120.53733 -35.9999993,0 -7,8.51044 35.9999993,0 7,-8.51044 z"
     id="path28"
     inkscape:connector-curvature="0"
     style="fill:#397ea9" />
  <path
     d="m 37.981438,142.57938 0,34.04177 -35.9999993,0 3.8,5.95731 43.1999993,0 0,-27.14831 -11,-12.85077 z"
     id="path32"
     inkscape:connector-curvature="0"
     style="opacity:0.12999998" />
  <path
     d="m 8.9814387,142.57938 35.9999993,0 0,25.53132 -35.9999993,0 0,-25.53132 z"
     id="path34"
     inkscape:connector-curvature="0"
     style="fill:#3665a6" />
  <path
     d="m 8.9814387,168.1107 -7,8.51045 0,-25.53133 7,-8.51044 0,25.53132 z"
     id="path36"
     inkscape:connector-curvature="0"
     style="fill:#397ec1" />
  <path
     d="m 44.981438,168.1107 -35.9999993,0 -7,8.51045 35.9999993,0 7,-8.51045 z"
     id="path38"
     inkscape:connector-curvature="0"
     style="fill:#264973" />
  <path
     d="m 37.981438,190.23785 0,34.04177 -35.9999993,0 3.8,5.95731 43.1999993,0 0,-27.14831 -11,-12.85077 z"
     id="path42"
     inkscape:connector-curvature="0"
     style="opacity:0.12999998" />
  <path
     d="m 8.9814387,190.23785 35.9999993,0 0,25.53133 -35.9999993,0 0,-25.53133 z"
     id="path44"
     inkscape:connector-curvature="0"
     style="fill:#de4937" />
  <path
     d="m 8.9814387,215.76918 -7,8.51044 0,-25.53132 7,-8.51045 0,25.53133 z"
     id="path46"
     inkscape:connector-curvature="0"
     style="fill:#e26359" />
  <path
     d="m 44.981438,215.76918 -35.9999993,0 -7,8.51044 35.9999993,0 7,-8.51044 z"
     id="path48"
     inkscape:connector-curvature="0"
     style="fill:#c84433" />
  <path
     d="m 37.981438,237.2155 0,33.95666 -35.9999993,0 3.8,5.95731 43.1999993,0 0,-27.06321 -11,-12.85076 z"
     id="path52"
     inkscape:connector-curvature="0"
     style="opacity:0.12999998" />
  <path
     d="m 8.9814387,237.2155 35.9999993,0 0,25.53132 -35.9999993,0 0,-25.53132 z"
     id="path54"
     inkscape:connector-curvature="0"
     style="fill:#d3ccbd" />
  <path
     d="m 8.9814387,262.66172 -7,8.51044 0,-25.53133 7,-8.42533 0,25.44622 z"
     id="path56"
     inkscape:connector-curvature="0"
     style="fill:#e0dbcf" />
  <path
     d="m 44.981438,262.66172 -35.9999993,0 -7,8.51044 35.9999993,0 7,-8.51044 z"
     id="path58"
     inkscape:connector-curvature="0"
     style="fill:#b8b09c" />
  <path
     d="m 54.781438,34.326555 2,-1.702088 0,-25.5313266 -2,1.787193 0,25.4462216 z"
     id="path60"
     inkscape:connector-curvature="0"
     style="fill:#f3a0c5" />
  <path
     d="m 90.781438,34.326555 -36,0 2,-1.702088 36,0 -2,1.702088 z"
     id="path62"
     inkscape:connector-curvature="0"
     style="fill:#db5b90" />
  <path
     d="m 56.781438,7.0931404 36,0 0,25.5313266 -36,0 0,-25.5313266 z"
     id="path64"
     inkscape:connector-curvature="0"
     style="fill:#ee7aaa" />
  <path
     d="m 92.581438,57.304753 -2.3,22.97819 -35.8,0 2,2.55313 38,0 0,-19.99954 -1.9,-5.53178 z"
     id="path66"
     inkscape:connector-curvature="0"
     style="opacity:0.12999998" />
  <path
     d="m 54.481438,80.282943 2,-1.70209 0,-25.53132 -2,1.70208 0,25.53133 z"
     id="path68"
     inkscape:connector-curvature="0"
     style="fill:#e8e4dc;fill-opacity:1" />
  <path
     d="m 90.481438,80.282943 -36,0 2,-1.70209 36,0 -2,1.70209 z"
     id="path70"
     inkscape:connector-curvature="0"
     style="fill:#c0b9a8;fill-opacity:1" />
  <path
     d="m 56.481438,53.049533 36,0 0,25.53132 -36,0 0,-25.53132 z"
     id="path72"
     style="fill:#dbd6c9;fill-opacity:1"
     inkscape:connector-curvature="0" />
  <path
     d="m 92.581438,248.44928 -2.3,23.0633 -35.8,0 2,2.46803 38,0 0,-19.99954 -1.9,-5.53179 z"
     id="path74"
     inkscape:connector-curvature="0"
     style="opacity:0.12999998" />
  <path
     d="m 54.481438,271.42747 2,-1.70208 0,-25.53133 -2,1.8723 0,25.36111 z"
     id="path76"
     inkscape:connector-curvature="0"
     style="fill:#e0dbcf" />
  <path
     d="m 90.481438,271.42747 -36,0 2,-1.70208 36,0 -2,1.70208 z"
     id="path78"
     inkscape:connector-curvature="0"
     style="fill:#b8b09c" />
  <path
     d="m 56.481438,244.19406 36,0 0,25.53133 -36,0 0,-25.53133 z"
     id="path80"
     inkscape:connector-curvature="0"
     style="fill:#d3ccbd" />
  <path
     d="m 92.581438,106.06958 -2.3,23.0633 -35.8,0 2,2.46803 38,0 0,-19.99954 -1.9,-5.53179 z"
     id="path86"
     inkscape:connector-curvature="0"
     style="opacity:0.12999998" />
  <path
     d="m 54.481438,129.04777 2,-1.70208 0,-25.53133 -2,1.8723 0,25.36111 z"
     id="path88"
     inkscape:connector-curvature="0"
     style="fill:#a6d7f5" />
  <path
     d="m 90.481438,129.04777 -36,0 2,-1.70208 36,0 -2,1.70208 z"
     id="path90"
     inkscape:connector-curvature="0"
     style="fill:#397ea9" />
  <path
     d="m 56.481438,101.81436 36,0 0,25.53133 -36,0 0,-25.53133 z"
     id="path92"
     inkscape:connector-curvature="0"
     style="fill:#5ca8dd" />
  <path
     d="m 92.581438,153.81316 -2.3,22.9782 -35.8,0 2,2.55313 38,0 0,-19.99954 -1.9,-5.53179 z"
     id="path96"
     inkscape:connector-curvature="0"
     style="opacity:0.12999998" />
  <path
     d="m 54.481438,176.79136 2,-1.70209 0,-25.53133 -2,1.78719 0,25.44623 z"
     id="path98"
     inkscape:connector-curvature="0"
     style="fill:#397ec1" />
  <path
     d="m 90.481438,176.79136 -36,0 2,-1.70209 36,0 -2,1.70209 z"
     id="path100"
     inkscape:connector-curvature="0"
     style="fill:#264973" />
  <path
     d="m 56.481438,149.55794 36,0 0,25.53133 -36,0 0,-25.53133 z"
     id="path102"
     inkscape:connector-curvature="0"
     style="fill:#3665a6" />
  <path
     d="m 92.581438,201.30143 -2.3,22.97819 -35.8,0 2,2.55314 38,0 0,-19.99954 -1.9,-5.53179 z"
     id="path106"
     inkscape:connector-curvature="0"
     style="opacity:0.12999998" />
  <path
     d="m 54.481438,224.27962 2,-1.70208 0,-25.53133 -2,1.78719 0,25.44622 z"
     id="path108"
     inkscape:connector-curvature="0"
     style="fill:#e26359" />
  <path
     d="m 90.481438,224.27962 -36,0 2,-1.70208 36,0 -2,1.70208 z"
     id="path110"
     inkscape:connector-curvature="0"
     style="fill:#c84433" />
  <path
     d="m 56.481438,197.04621 36,0 0,25.53133 -36,0 0,-25.53133 z"
     id="path112"
     inkscape:connector-curvature="0"
     style="fill:#de4937" />
</svg>
