<?xml version="1.0"?>
<svg width="1066.6667" height="1066.6667" xmlns="http://www.w3.org/2000/svg" xmlns:svg="http://www.w3.org/2000/svg">
 <metadata id="metadata8">image/svg+xml</metadata>
 <g transform="matrix(1.3333333,0,0,-1.3333333,0,1066.6667) " id="g10" display="inline">
  <g transform="translate(-127,290) scale(0.10000000149011612) " id="g12">
   <path id="path16" d="m4401.14,3977.57c-266.54,305.61 -727.44,442.83 -1111.86,301.28c-81.48,-30 -417.08,-30 -498.55,0c-384.43,141.55 -845.33,4.33 -1111.87,-301.28c-316.52,-362.93 -415.17,-848.32 -347.51,-1305.84c86.05,-581.68 410.79,-980.21 1012.41,-1159.23c335.94,-99.96 465.3,-46.34 696.24,-46.34c230.94,0 360.3,-53.62 696.24,46.34c601.62,179.02 926.36,577.55 1012.41,1159.23c67.66,457.52 -30.98,942.91 -347.51,1305.84" fill-rule="nonzero" fill="#e22225"/>
   <path id="path18" d="m2523.89,3495.77c0,-187.87 -152.3,-340.16 -340.17,-340.16c-187.86,0 -340.16,152.29 -340.16,340.16c0,187.87 152.3,340.17 340.16,340.17c187.87,0 340.17,-152.3 340.17,-340.17" fill-rule="nonzero" fill="#e74739"/>
   <path id="path20" d="m4401.14,3977.57c-266.54,305.61 -727.44,442.83 -1111.86,301.28c-81.48,-30 -417.08,-30 -498.55,0c-126.52,46.59 -261.29,62.42 -394.73,52.55c219.37,-47.73 226.98,-325.54 914.6,-274.55c638.97,47.37 1110.75,-901.24 747.2,-1682.36c-225.81,-485.17 -996.54,-813.5 -2008.26,-745.67c89.62,-45.45 187.34,-84.51 294.22,-116.32c335.95,-99.96 465.3,-46.34 696.24,-46.34c230.94,0 360.3,-53.62 696.25,46.34c601.61,179.02 926.35,577.55 1012.4,1159.24c67.66,457.51 -30.98,942.9 -347.51,1305.83" fill-rule="nonzero" fill="#c51d1f"/>
   <path id="path22" d="m3027.54,4424.47c-63.42,159.99 -220.62,256.59 -391.87,273.72c82.4,-79.4 142.5,-147.05 170.21,-285.6c-89.83,50.49 -332.5,87.09 -465.69,-7.89c177.25,-19.89 275.52,-59.51 378.6,-178.15c0,0 -72.16,-66.83 -87.08,-140.51c-10.64,-52.56 5.4,-173 5.4,-173c109.39,155.19 370.64,76.02 382.52,238.31c0,0 269.16,-51.46 372.08,-237.5c19.78,245.41 -98.96,288.96 -98.96,288.96c113.47,81.8 325.9,23.74 447.06,-13.86c-78.94,116.66 -252.33,215.84 -410.58,194.49c63.57,115.42 176.63,180.19 307.76,193.06c-198.27,68.2 -479.86,65.26 -609.45,-152.03l0,0" fill-rule="nonzero" fill="#238735"/>
   <path id="path24" d="m3157.8,5068.04c-214.58,-169.51 -191.39,-581.6 -166.05,-778.68c15.48,-7.71 34.67,-9.49 56.1,4.22c0.67,119.42 9.64,305.34 54,429.85c63.88,179.38 164.62,233.44 164.62,233.44c0,120.4 -108.67,111.17 -108.67,111.17" fill-rule="nonzero" fill="#1f792f"/>
  </g>
 </g>
</svg>